Coordinates
version=1
nRows=16
nColumns=33
inDegrees=yes

Units are S.I. units (second, meters, Newtons, ...)
Angles are in degrees.

endheader
time	ground_thorax_rot_x	ground_thorax_rot_y	ground_thorax_rot_z	ground_thorax_tx	ground_thorax_ty	ground_thorax_tz	clav_prot_r	clav_elev_r	scapula_abduction_r	scapula_elevation_r	scapula_upward_rot_r	scapula_winging_r	shoulder_elv_r	plane_of_elev_r	axial_rot_r	elbow_flexion_r	pro_sup_r	wrist_flex_r	wrist_dev_r	clav_prot_l	clav_elev_l	scapula_abduction_l	scapula_elevation_l	scapula_upward_rot_l	scapula_winging_l	shoulder_elv_l	plane_of_elev_l	axial_rot_l	elbow_flexion_l	pro_sup_l	wrist_flex_l	wrist_dev_l
      1.93000000	     -2.93761486	      3.10784995	     13.23503850	     -0.11260640	      1.02912507	      0.01181887	     10.08441730	    -15.47303955	     18.72679983	     -8.79404669	      2.23973891	     -1.68249880	    -21.25154210	    -70.60774637	    112.87730145	    -74.31942952	   -177.16273683	     26.94444930	     -9.89241339	     15.57779054	     -5.83537759	    -22.38833249	    -15.75065782	    -34.79610239	      3.62107604	     60.88315672	    -18.91059589	     12.34752138	     62.38947521	     13.00337112	     13.36720340	    -15.25921004
      1.94000000	     -2.75546639	      3.04690941	     13.44527937	     -0.11278773	      1.02914529	      0.01190348	      9.92046273	    -15.16231030	     18.21135499	     -8.31294867	      1.73749712	     -1.65196761	    -22.04012804	    -71.30942839	    112.59794619	    -74.86448120	   -176.84846579	     27.58718210	    -10.14602088	     15.27623941	     -5.51284445	    -21.92749362	    -16.25142105	    -35.18697051	      3.33504422	     60.59090885	    -19.77695861	     12.09139224	     63.57857222	     12.89357314	     13.09935443	    -15.65344940
      1.95000000	     -2.67271668	      3.01590202	     13.21065730	     -0.11233805	      1.02999566	      0.01215339	      9.69934356	    -15.40829090	     17.62584360	     -8.37518412	      1.30249849	     -1.28704515	    -23.77760600	    -71.93240235	    110.85971179	    -75.30126461	   -175.55241239	     29.82051955	    -11.46498250	     14.56670153	     -5.35959984	    -20.62054488	    -16.22593906	    -34.74245684	      2.75312423	     60.65087488	    -21.19116883	     11.23298232	     64.48729713	     12.78788855	     11.91934188	    -16.64328467
      1.96000000	     -2.50985299	      2.84838587	     12.94904388	     -0.11183494	      1.03008347	      0.01233420	      9.54074598	    -15.00461484	     17.66004065	     -8.24126251	      1.89078652	     -1.51178285	    -26.68818912	    -72.55478531	    108.84952945	    -75.65455212	   -174.19936751	     30.71045819	    -12.13917589	     13.82253307	     -4.85415969	    -19.24883865	    -16.53449977	    -34.30956080	      2.15446014	     60.41874598	    -22.20600097	     10.49047579	     65.32280432	     12.52220198	     10.97403721	    -17.55577041
      1.97000000	     -2.36625895	      2.77761287	     13.02325154	     -0.11200688	      1.03004343	      0.01257344	      9.44936520	    -14.60355957	     17.26443328	     -7.67074066	      1.38723628	     -1.57218824	    -27.21373635	    -72.92017166	    108.79014063	    -76.11631539	   -174.06693708	     30.94110087	    -12.17337014	     13.62451499	     -4.59645952	    -18.96805012	    -17.01297619	    -34.78396105	      1.94372433	     60.16180456	    -22.93288819	     10.68109725	     66.26159007	     12.42683712	     10.91601373	    -17.76549388
      1.98000000	     -2.11125519	      2.69758078	     13.17027507	     -0.11209722	      1.03045279	      0.01278285	      9.49692458	    -14.46203262	     17.01986787	     -7.26945116	      0.71995514	     -1.54922503	    -28.45813367	    -73.38700729	    107.55464523	    -76.38808376	   -173.06231879	     32.26933630	    -13.02355900	     13.20915275	     -4.52627089	    -18.27164315	    -17.21485948	    -35.02067166	      1.57251252	     60.02042092	    -23.97965804	     10.28957090	     66.91567498	     12.44046857	     10.50775989	    -18.52608652
      1.99000000	     -1.94734015	      2.62737016	     13.05539595	     -0.11168901	      1.03053555	      0.01296049	      9.22392826	    -14.04438403	     16.66867675	     -6.97609724	      0.92898338	     -1.62295159	    -30.44985706	    -73.89293614	    106.33387456	    -76.49315545	   -171.75159700	     33.41601192	    -13.92624722	     12.66374351	     -4.08732840	    -17.27246803	    -17.59195826	    -34.87749389	      1.11465644	     59.76885352	    -24.76380403	      9.79457659	     67.42888726	     12.50280780	      9.93360331	    -19.51034760
      2.00000000	     -1.86103003	      2.53204672	     12.94899762	     -0.11179977	      1.03047884	      0.01309948	      9.14122410	    -13.74027280	     16.35712691	     -6.55063998	      0.56799665	     -1.65114365	    -30.88839702	    -74.17181885	    106.29973186	    -76.73965632	   -171.59216613	     33.59865254	    -13.98377408	     12.51120632	     -3.80706041	    -17.05758406	    -18.05555621	    -35.27478371	      0.94067375	     59.54528059	    -25.44653549	      9.87948581	     68.24970056	     12.43762587	      9.85782200	    -19.74522728
      2.01000000	     -1.66244208	      2.48946253	     13.09113629	     -0.11180705	      1.03091955	      0.01329736	      9.15755257	    -13.67090598	     16.11000333	     -6.25020258	     -0.00833202	     -1.58289978	    -32.49661280	    -74.63475247	    104.76170789	    -76.66197078	   -169.80571499	     35.38589622	    -15.26385623	     12.05763747	     -3.65341329	    -16.22813311	    -18.16959690	    -35.15447923	      0.57368911	     59.33451625	    -26.57062921	      9.15887701	     68.48963792	     12.72149694	      9.07431330	    -21.10077652
      2.02000000	     -1.59963885	      2.36675638	     12.99544273	     -0.11181042	      1.03083083	      0.01332310	      9.01941691	    -13.34208265	     15.77039919	     -5.85636990	     -0.23678001	     -1.60607136	    -33.04698804	    -74.96276711	    104.80579527	    -76.77557989	   -169.58497467	     35.55554824	    -15.33314887	     11.88962210	     -3.33454167	    -15.97520402	    -18.65932392	    -35.52327576	      0.37979657	     59.05719744	    -27.21472320	      9.25563053	     69.19108320	     12.68837396	      8.97124192	    -21.35447473
      2.03000000	     -1.54158871	      2.33704587	     12.81681103	     -0.11135675	      1.03118711	      0.01343263	      8.82486598	    -13.15124527	     15.55781484	     -5.78813022	      0.01069124	     -1.61567926	    -35.48660286	    -75.26508923	    102.90595547	    -76.28924920	   -166.72564933	     37.75205236	    -17.07308941	     11.35014327	     -2.89295572	    -14.89124358	    -18.83601125	    -34.94129471	     -0.04020310	     58.80408010	    -28.20077338	      8.37171811	     69.26695895	     13.42046228	      7.66764493	    -23.49101672
      2.04000000	     -1.40142802	      2.24236854	     12.93905033	     -0.11148300	      1.03120006	      0.01352340	      8.75307476	    -12.80005423	     15.24114176	     -5.29440220	     -0.40102048	     -1.65025925	    -36.04140132	    -75.60065510	    102.85368355	    -76.25428999	   -166.51103461	     37.84902988	    -17.14048892	     11.20093340	     -2.68448968	    -14.67941253	    -19.23770495	    -35.34540554	     -0.21511467	     58.47820148	    -28.87374535	      8.34162589	     69.60648186	     13.44513901	      7.60012902	    -23.67468258
      2.05000000	     -1.24963191	      2.16853007	     13.05447983	     -0.11155500	      1.03111137	      0.01362176	      8.67698511	    -12.46429019	     14.91244530	     -4.80977574	     -0.82522458	     -1.66653396	    -36.60552854	    -75.93099645	    102.72499499	    -76.19220552	   -166.09010039	     38.16564208	    -17.29885557	     11.04874114	     -2.44514635	    -14.45216639	    -19.64297107	    -35.69209811	     -0.39310198	     58.15452878	    -29.54427926	      8.16502577	     69.92555701	     13.55674662	      7.44417722	    -24.01999663
      2.06000000	     -1.22328059	      2.14062461	     12.84187462	     -0.11124086	      1.03155155	      0.01365090	      8.63407371	    -12.41989598	     14.94498189	     -4.86558061	     -0.59544806	     -1.70539552	    -39.14761543	    -76.02337759	    100.32068551	    -75.35581305	   -161.90221439	     41.06408609	    -19.24222738	     10.60249566	     -1.99306151	    -13.47976662	    -19.72856861	    -34.90197372	     -0.72067553	     57.76140722	    -30.50824471	      7.15010283	     69.95351273	     15.03695185	      5.50698236	    -24.99999983
      2.07000000	     -1.13059364	      2.13147102	     12.37453229	     -0.11159136	      1.03202230	      0.01382152	      8.64147206	    -12.35708832	     14.85643348	     -4.71702686	     -0.81145596	     -1.69385622	    -39.28536343	    -76.02972032	    100.37454307	    -75.19795460	   -161.88394770	     41.04430530	    -19.24043399	     10.57096680	     -1.94114177	    -13.45308207	    -19.87764692	    -35.10339933	     -0.77004163	     57.61916719	    -30.74911395	      7.11674684	     69.87250236	     15.05167437	      5.51347840	    -24.99999983
      2.08000000	     -1.04636762	      2.01858450	     12.91893888	     -0.11144060	      1.03179502	      0.01384873	      8.51321511	    -11.91080481	     14.40837764	     -4.10396930	     -1.29910900	     -1.70152368	    -40.01541252	    -76.38553492	    100.35993444	    -74.82222107	   -161.48767977	     41.20798559	    -19.35391079	     10.38321108	     -1.66350974	    -13.17149513	    -20.37868977	    -35.56169817	     -1.00447550	     57.22854652	    -31.64035963	      7.02889236	     70.10796617	     15.17526080	      5.33971324	    -24.99999983
